<svg xmlns="http://www.w3.org/2000/svg" viewBox="0 0 1024 1024" class="icon"><path fill="#eb1438" d="M0 512v512h1024V0H0v512zm287.334-170.803c2.048 1.945 3.892 4.915 4.404 6.963 1.126 5.325-.615 218.317-1.946 232.448-3.789 39.322-16.384 64.614-40.96 81.818-22.733 15.974-50.688 24.883-78.848 24.985-17.818 0-25.907-3.277-30.925-12.902-2.048-3.789-2.355-6.144-2.662-20.89-.41-18.739.614-24.576 5.939-31.846 4.3-6.042 7.885-7.475 20.378-8.5 12.185-.921 20.48-3.379 27.136-7.987 8.499-5.836 15.667-16.793 17.817-27.238.615-2.867 1.434-6.554 1.843-8.192.41-1.74 1.024-52.429 1.332-112.64.614-101.99.716-109.773 2.457-112.845 3.38-6.246 4.096-6.349 38.912-6.451h31.437l3.686 3.277zm158.208.41 3.072 3.174.922 64.921c.82 53.453 1.229 66.048 2.56 70.964 6.246 23.654 22.63 35.532 47.104 34.099 20.07-1.127 30.618-9.319 35.942-27.955 1.639-5.325 1.844-14.03 2.356-73.114.614-61.747.716-67.38 2.457-69.94 3.789-5.734 5.12-5.938 38.707-5.631l30.823.307 2.97 3.38 2.969 3.276v74.035c0 79.77-.205 82.637-5.632 101.376-5.12 17.818-12.288 30.106-24.371 41.984-21.811 21.197-48.64 30.413-88.781 30.413-38.707 0-66.867-10.445-89.702-33.178-15.258-15.36-25.703-36.044-30.823-61.542-1.638-8.397-1.843-15.77-1.843-82.227v-73.114l2.97-2.457 2.867-2.56 31.13.307 31.129.307 3.174 3.174zm434.074-.513c2.15 1.23 4.813 3.994 6.042 6.144 2.15 3.79 2.252 5.018 1.945 24.372-.307 22.732-.614 23.45-7.987 28.467l-3.38 2.355h-109.26v28.672h52.326c51.815 0 52.43 0 56.013 2.253 6.349 3.891 7.373 7.885 7.373 29.081 0 17.306-.102 18.842-2.355 23.04-1.639 3.175-3.687 5.223-6.861 6.759-4.506 2.355-4.71 2.355-55.5 2.355h-50.996v30.72h54.374c54.068 0 54.477 0 58.368 2.253 7.066 3.993 8.09 7.68 8.09 29.491 0 21.3-1.126 25.6-7.578 29.696-3.379 2.048-4.608 2.048-92.364 2.048-86.938 0-89.088-.102-92.365-2.048-1.843-1.126-4.199-3.482-5.325-5.325-2.048-3.277-2.048-5.427-2.048-117.657V349.49l2.355-3.481c4.915-7.476-.717-7.066 97.383-7.066 87.654 0 87.859 0 91.75 2.15z" data-follow-fill="#eb1438"/></svg>