<?xml version="1.0" encoding="utf-8"?>
<!-- Generator: Adobe Illustrator 27.0.0, SVG Export Plug-In . SVG Version: 6.00 Build 0)  -->
<svg version="1.1" id="图层_1" xmlns="http://www.w3.org/2000/svg" xmlns:xlink="http://www.w3.org/1999/xlink" x="0px" y="0px"
	 viewBox="0 0 209 49" style="enable-background:new 0 0 209 49;" xml:space="preserve">
<style type="text/css">
	.st0{fill:#FFFFFF;}
</style>
<g id="Layer_2">
	<g id="Layer_1-2">
		<polygon class="st0" points="0,15 85,0 85,9 209,9 209,18 85,19 85,28 		"/>
		<path class="st0" d="M106,33c1.3,2.6,3.3,4.8,5.8,6.3c1.3,0.8,2.7,1.4,4.2,1.7h10v8l54-11l-54-12v7h-8c-3.5-1.1-5.9-3.9-6-7
			c-0.2-4.1,3.8-8.2,9-8h59v-8h-61c-2.9,0.3-5.7,1.3-8,3C105.1,17.8,103,26,106,33z"/>
	</g>
</g>
</svg>
